<?xml version="1.0"?>
<svg xmlns="http://www.w3.org/2000/svg" viewBox="0 0 24 24" enable-background="new 0 0 24 24">
    <path d="M 8.40625 0 C 8.10625 -1.110223e-16 7.89375 0.29375 8.09375 0.59375 C 8.09375 0.59375 10.5125 2.7 11.8125 4.5 C 12.5125 5.6 13.09375 7.9 13.09375 9.5 L 13.09375 12 L 11.96875 12 C 11.755466 9.7874873 9.8553752 8 7.5 8 C 5 8 3 10 3 12.5 L 3 17.09375 C 3 20.89375 6.10625 24 9.90625 24 L 10 24 C 13.8 24 16.90625 20.89375 16.90625 17.09375 L 16.90625 9.5 C 16.90625 7.9 17.3875 5.8 18.1875 4.5 C 19.5875 2.2 21.90625 0.59375 21.90625 0.59375 C 22.10625 0.29375 21.89375 -7.4014868e-17 21.59375 0 L 8.40625 0 z M 7.5 10 L 7.59375 10 C 8.81875 10 9.8328125 10.851562 10.0625 12 L 9.09375 12 L 8.90625 12 C 7.30625 12 6 13.30625 6 14.90625 L 6 16 C 6 17.6 7.3 19 9 19 C 10.6 19 12 17.7 12 16 L 12 14 L 13.09375 14 L 13.09375 17 C 13.09375 19.2 11.29375 21 9.09375 21 L 9 21 C 6.8 21 5 19.2 5 17 L 5 12.40625 C 5 11.10625 6.1 10 7.5 10 z M 20 11 L 20 12 L 18 12 L 18 14 L 20 14 L 20 15 L 21 15 L 21 14 L 21 12 L 21 11 L 20 11 z M 9 14 L 10.09375 14 L 10.09375 16 C 10.09375 16.5 9.69375 17 9.09375 17 C 8.59375 17 8.09375 16.6 8.09375 16 L 8.09375 15 C 8.09375 14.342568 8.5321419 14.034615 9 14 z"/>
</svg>
