<?xml version="1.0"?>
<svg xmlns="http://www.w3.org/2000/svg" version="1" viewBox="0 0 24 24" enable-background="new 0 0 24 24">
    <path d="M 6.3125 2 C 6.0265625 1.990625 6.0375 2.475 6.1875 3 C 6.5875 3.9 7.9875 8.2125 7.1875 10.3125 C 6.2875 12.4125 5 13.6 5 16 C 5 16.063077 5.0255586 16.106445 5.03125 16.15625 C 5.0241104 16.270319 5 16.384208 5 16.5 C 5 19.525721 7.4742784 22 10.5 22 C 13.525721 22 16 19.525721 16 16.5 C 16 13.474279 13.525721 11 10.5 11 C 10.087683 11 9.6994706 11.069223 9.3125 11.15625 C 9.3731944 11.077809 9.4411892 10.979764 9.5 10.90625 C 11.1 9.20625 15.30625 8.90625 15.90625 8.90625 C 16.60625 8.90625 17.2 8.49375 16.5 8.09375 C 16.5 8.09375 7.3875 2.5875 6.6875 2.1875 C 6.5125 2.0625 6.4078125 2.003125 6.3125 2 z M 10.5 13 C 12.444841 13 14 14.555159 14 16.5 C 14 16.66876 13.991408 16.83787 13.96875 17 L 13.5 17 C 13.283333 17 13 16.716667 13 16.5 C 13 15.116667 11.883333 14 10.5 14 C 9.1166667 14 8 15.116667 8 16.5 C 8 16.716667 7.7166667 17 7.5 17 L 7.03125 17 C 7.0085922 16.83787 7 16.66876 7 16.5 C 7 14.555159 8.5551588 13 10.5 13 z M 10.5 16 C 10.716667 16 11 16.283333 11 16.5 C 11 17.710416 11.859538 18.70485 13 18.9375 C 12.365862 19.588041 11.488556 20 10.5 20 C 9.5114441 20 8.6341375 19.588041 8 18.9375 C 9.1404622 18.70485 10 17.710416 10 16.5 C 10 16.283333 10.283333 16 10.5 16 z M 18 16 L 18 17 L 17 17 C 16.9 17.7 16.8 18.4 16.5 19 L 18 19 L 18 20 L 20 20 L 20 16 L 18 16 z"/>
</svg>
