<?xml version="1.0"?>
<svg xmlns="http://www.w3.org/2000/svg" viewBox="0 0 32 32">
    <path style="text-indent:0;text-align:start;line-height:normal;text-transform:none;block-progression:tb;-inkscape-font-specification:Bitstream Vera Sans" d="M 27.5625 4 L 20.5 11.0625 C 20.340241 11.021396 20.172589 11 20 11 C 18.895431 11 18 11.895431 18 13 C 18 14.104569 18.895431 15 20 15 C 21.104569 15 22 14.104569 22 13 C 22 12.827411 21.978604 12.659759 21.9375 12.5 L 29 5.4375 L 27.5625 4 z M 5 6 C 3.9069372 6 3 6.9069372 3 8 L 3 24 C 3 25.093063 3.9069372 26 5 26 L 9 26 C 9.7466943 26 10.4068 25.585421 10.75 24.96875 C 10.83184 24.97923 10.915609 25 11 25 L 15 25 C 15.7319 25 16.370139 24.59685 16.71875 24 L 21 24 C 21.739893 24 22.372804 23.596897 22.71875 23 L 27 23 C 28.105 23 29 22.105 29 21 L 29 10.4375 C 29 9.6515 28.3485 9 27.5625 9 L 25.5625 11 L 27 11 L 27 21 L 23 21 L 23 14.03125 L 22.65625 14.375 C 22.37225 14.917 21.917 15.37225 21.375 15.65625 L 21 16.03125 L 21 22 L 17 22 L 17 10 L 19.40625 10 L 21.40625 8 L 16.71875 8 C 16.370139 7.4031496 15.7319 7 15 7 L 11 7 C 10.915609 7 10.83184 7.0207697 10.75 7.03125 C 10.4068 6.414579 9.7466943 6 9 6 L 5 6 z M 5 8 L 9 8 L 9 9 L 9 23 L 9 24 L 5 24 L 5 8 z M 11 9 L 15 9 L 15 23 L 11 23 L 11 9 z M 7 12 C 6.4477153 12 6 12.447715 6 13 C 6 13.552285 6.4477153 14 7 14 C 7.5522847 14 8 13.552285 8 13 C 8 12.447715 7.5522847 12 7 12 z M 13 12 C 12.447715 12 12 12.447715 12 13 C 12 13.552285 12.447715 14 13 14 C 13.552285 14 14 13.552285 14 13 C 14 12.447715 13.552285 12 13 12 z M 25 12 C 24.447715 12 24 12.447715 24 13 C 24 13.552285 24.447715 14 25 14 C 25.552285 14 26 13.552285 26 13 C 26 12.447715 25.552285 12 25 12 z M 7 18 C 6.4477153 18 6 18.447715 6 19 C 6 19.552285 6.4477153 20 7 20 C 7.5522847 20 8 19.552285 8 19 C 8 18.447715 7.5522847 18 7 18 z M 13 18 C 12.447715 18 12 18.447715 12 19 C 12 19.552285 12.447715 20 13 20 C 13.552285 20 14 19.552285 14 19 C 14 18.447715 13.552285 18 13 18 z M 19 18 C 18.447715 18 18 18.447715 18 19 C 18 19.552285 18.447715 20 19 20 C 19.552285 20 20 19.552285 20 19 C 20 18.447715 19.552285 18 19 18 z M 25 18 C 24.447715 18 24 18.447715 24 19 C 24 19.552285 24.447715 20 25 20 C 25.552285 20 26 19.552285 26 19 C 26 18.447715 25.552285 18 25 18 z"/>
</svg>
