<?xml version="1.0"?>
<svg xmlns="http://www.w3.org/2000/svg" viewBox="0 0 50 50">
    <path d="M 43 2 C 42.448 2 42 2.448 42 3 L 42 3.5761719 L 37.353516 2.6796875 L 35.332031 4.9785156 L 38.376953 9 L 42 9 L 42 10 C 42 10.552 42.448 11 43 11 C 43.552 11 44 10.552 44 10 L 44 9 L 45 9 L 45 10 C 45 10.552 45.448 11 46 11 C 46.552 11 47 10.552 47 10 L 47 9 L 48.785156 9 L 48.466797 4.8242188 L 47 4.5410156 L 47 3 C 47 2.448 46.552 2 46 2 C 45.448 2 45 2.448 45 3 L 45 4.15625 L 44 3.9628906 L 44 3 C 44 2.448 43.552 2 43 2 z M 33.986328 6.5117188 L 25.580078 16.083984 C 20.437055 17.292959 11.335051 20.075631 5.7558594 25.535156 C 2.6788594 28.544156 0.898 32.543375 1 36.234375 C 1.069 38.740375 2.0320781 40.928578 3.7050781 42.392578 C 5.6550781 44.101578 7.8822187 44.943359 10.199219 44.943359 C 13.318219 44.943359 16.602609 43.416922 19.599609 40.419922 C 25.468566 34.752963 28.191961 26.114542 29.400391 20.662109 L 37.816406 11 L 37.382812 11 L 36.78125 10.207031 L 33.986328 6.5117188 z M 20.09375 22.240234 C 20.86751 22.295752 21.581719 22.589891 22.136719 23.134766 C 22.732719 23.719766 23.063312 24.544984 23.070312 25.458984 C 23.080313 26.719984 22.49675 28.041984 21.46875 29.083984 C 20.39075 30.176984 19.056891 30.746094 17.837891 30.746094 C 16.960891 30.746094 16.140484 30.45275 15.521484 29.84375 C 14.925484 29.25875 14.594891 28.431578 14.587891 27.517578 C 14.577891 26.254578 15.161453 24.934578 16.189453 23.892578 C 17.348828 22.717578 18.80415 22.147705 20.09375 22.240234 z M 30.984375 22.677734 C 29.557375 28.366734 26.666672 36.374984 21.013672 41.833984 C 18.163672 44.683984 15.025609 46.377359 11.849609 46.818359 C 12.326609 46.897359 12.806062 46.951516 13.289062 46.978516 C 13.541063 46.992516 13.792969 46.998047 14.042969 46.998047 C 17.590969 46.998047 20.9535 45.582953 23.8125 42.876953 L 23.923828 42.751953 C 29.658828 35.136953 30.985375 27.829734 30.984375 22.677734 z M 11.675781 25.591797 C 11.967895 25.571805 12.234172 25.644063 12.435547 25.820312 C 12.972547 26.290312 12.841625 27.319187 12.140625 28.117188 C 11.439625 28.915188 10.435438 29.180938 9.8984375 28.710938 C 9.3604375 28.240938 9.4923594 27.212062 10.193359 26.414062 C 10.631484 25.915312 11.188926 25.625117 11.675781 25.591797 z M 12.955078 29.992188 C 13.087793 30.008389 13.205516 30.124437 13.291016 30.382812 C 13.502016 30.771812 13.621875 31.266781 13.921875 31.550781 C 14.221875 31.834781 14.77225 31.934672 15.15625 32.013672 C 15.64025 32.187672 15.594688 32.660406 15.054688 33.191406 L 14.964844 33.296875 C 14.519844 33.822875 14.269031 34.438969 14.207031 35.042969 C 14.057031 35.752969 14.279297 36.340453 14.779297 36.814453 C 14.879297 36.909453 14.980781 37.00375 15.175781 37.09375 C 15.751781 37.25975 15.961141 37.649391 15.494141 37.775391 C 15.310141 37.885391 15.028844 37.902109 14.839844 37.912109 C 13.799844 37.969109 12.811719 37.646672 12.011719 36.888672 C 11.511719 36.414672 11.358859 35.536656 11.130859 34.847656 C 10.363859 34.689656 9.4023437 34.643922 8.9023438 34.169922 C 8.0023437 33.316922 7.7825469 31.98525 7.8105469 30.78125 C 7.8715469 30.17625 8.2626562 30.356094 8.4726562 30.746094 C 8.5726562 30.841094 8.6773437 31.035859 8.7773438 31.130859 C 9.0833437 31.514859 9.5677656 31.68725 10.134766 31.65625 C 10.795766 31.62025 11.535063 31.279531 12.164062 30.644531 L 12.253906 30.539062 C 12.472656 30.214063 12.733887 29.965186 12.955078 29.992188 z M 18.880859 31.892578 C 19.172973 31.872586 19.43925 31.944844 19.640625 32.121094 C 20.177625 32.591094 20.046703 33.618969 19.345703 34.417969 C 18.644703 35.215969 17.640516 35.481719 17.103516 35.011719 C 16.566516 34.541719 16.697438 33.512844 17.398438 32.714844 C 17.836562 32.216094 18.394004 31.925898 18.880859 31.892578 z M 7.9179688 35.033203 C 8.2693437 35.004453 8.6166406 35.125609 8.8691406 35.412109 L 10.941406 37.224609 C 11.530406 37.593609 11.473453 38.613141 10.939453 39.244141 L 10.6875 39.542969 C 10.7985 39.837969 11.119031 39.892047 11.207031 39.998047 C 11.623031 40.501047 11.530688 40.726094 11.179688 41.246094 C 10.823688 41.666094 10.134125 41.719938 9.828125 41.335938 C 8.828125 40.388937 8.8253906 39.575719 9.6503906 38.636719 L 7.4902344 36.744141 C 6.8622344 37.380141 6.0782031 38.056781 4.7832031 36.925781 C 4.4832031 36.641781 4.4224375 36.008281 4.7734375 35.488281 C 5.1294375 35.068281 5.6139219 34.992953 5.9199219 35.376953 C 6.0199219 35.471953 6.29875 35.780844 6.59375 35.964844 L 6.9433594 35.556641 C 7.2103594 35.241141 7.5665938 35.061953 7.9179688 35.033203 z"/>
</svg>
