<?xml version="1.0"?>
<svg xmlns="http://www.w3.org/2000/svg" viewBox="0 0 50 50" enable-background="new 0 0 50 50">
    <path d="M 47.8125 2.5 C 47.481129 2.5 47.1875 2.7623791 47.1875 3.09375 C 47.1875 3.4251209 47.481129 3.6875 47.8125 3.6875 C 48.143871 3.6875 48.40625 3.4251209 48.40625 3.09375 C 48.40625 2.7623791 48.143871 2.5 47.8125 2.5 z M 46.1875 2.6875 C 45.856129 2.6875 45.59375 2.9811291 45.59375 3.3125 C 45.59375 3.6438708 45.856129 3.90625 46.1875 3.90625 C 46.518871 3.90625 46.8125 3.6438708 46.8125 3.3125 C 46.8125 2.9811291 46.518871 2.6875 46.1875 2.6875 z M 44.59375 3 C 44.26238 3 44 3.2623791 44 3.59375 C 44 3.9251209 44.26238 4.1875 44.59375 4.1875 C 44.925121 4.1875 45.1875 3.9251209 45.1875 3.59375 C 45.1875 3.2623791 44.925121 3 44.59375 3 z M 43 3.3125 C 42.668629 3.3125 42.40625 3.5748791 42.40625 3.90625 C 42.40625 4.2376209 42.668629 4.5 43 4.5 C 43.331371 4.5 43.59375 4.2376209 43.59375 3.90625 C 43.59375 3.5748791 43.331371 3.3125 43 3.3125 z M 41.3125 3.6875 C 40.981129 3.6875 40.6875 3.9811291 40.6875 4.3125 C 40.6875 4.6438709 40.981129 4.90625 41.3125 4.90625 C 41.643871 4.90625 41.90625 4.6438709 41.90625 4.3125 C 41.90625 3.9811291 41.643871 3.6875 41.3125 3.6875 z M 48.09375 3.875 A 1.0001 1.0001 0 0 0 47.90625 3.90625 L 42.03125 5.03125 A 1.0001 1.0001 0 0 0 42 5.03125 C 41.248569 5.1815362 40.6515 5.55825 40.1875 5.90625 A 1.0001 1.0001 0 0 0 40.09375 6 L 23.96875 22.1875 C 23.780728 21.453606 23.390986 20.687901 22.6875 19.90625 C 21.6875 18.90625 20.1875 18.3125 18.6875 18.3125 C 17.1875 18.3125 15.7875 18.90625 14.6875 19.90625 C 13.5875 21.00625 12.7875 22.5 12.6875 24 C 12.5875 25 11.8125 25.8125 10.8125 25.8125 L 10.6875 25.8125 L 10.09375 25.8125 C 7.29375 25.8125 5.0125 26.70625 3.3125 28.40625 C -1.3875 33.00625 -1.0125 39.7125 4.1875 44.8125 C 6.8875 47.5125 9.99375 49 13.09375 49 C 15.79375 49 18.49375 47.7875 20.59375 45.6875 C 22.89375 43.3875 23.20625 41.2125 23.40625 39.3125 C 23.40625 39.1125 23.5 38.79375 23.5 38.59375 C 23.7 37.29375 24.59375 36.8875 26.09375 36.1875 C 27.69375 35.4875 30 34.6875 30 31.6875 C 30 31.2875 29.9 30 28 30 C 27.7 30 27.39375 29.99375 27.09375 30.09375 C 26.79375 30.09375 26.49375 30.1875 26.09375 30.1875 C 25.162436 30.1875 24.760658 29.955907 24.46875 29.34375 L 43.5 10.3125 C 43.782149 10.030351 43.860417 10 44.09375 10 A 1.0001 1.0001 0 0 0 44.1875 10 L 45.28125 9.90625 A 1.0001 1.0001 0 0 0 45.40625 9.875 C 46.031965 9.7498569 46.735723 9.4830267 47.3125 8.90625 L 49.71875 6.5 A 1.0001 1.0001 0 0 0 49.71875 5.09375 L 48.8125 4.1875 A 1.0001 1.0001 0 0 0 48.09375 3.875 z M 47.34375 6.0625 L 45.90625 7.5 C 45.683027 7.7232233 45.374285 7.8313931 45 7.90625 L 44.09375 8 L 44 8 L 44 8.03125 C 43.271729 8.062879 42.58842 8.41158 42.09375 8.90625 L 21.40625 29.59375 L 20.40625 28.59375 L 41.40625 7.5 C 41.734061 7.2541417 42.124877 7.0251636 42.375 6.96875 L 42.40625 6.96875 L 47.34375 6.0625 z M 15.09375 30.09375 L 19.5 34.5 L 18 36 L 13.59375 31.59375 L 15.09375 30.09375 z M 11 34.1875 L 15.40625 38.59375 L 13.90625 40.09375 L 9.5 35.6875 L 11 34.1875 z M 18 41 C 18.6 41 19 41.4 19 42 C 19 42.6 18.6 43 18 43 C 17.4 43 17 42.6 17 42 C 17 41.4 17.4 41 18 41 z M 11 43 C 11.6 43 12 43.4 12 44 C 12 44.6 11.6 45 11 45 C 10.4 45 10 44.6 10 44 C 10 43.4 10.4 43 11 43 z M 15 43 C 15.6 43 16 43.4 16 44 C 16 44.6 15.6 45 15 45 C 14.4 45 14 44.6 14 44 C 14 43.4 14.4 43 15 43 z"/>
</svg>
