<?xml version="1.0"?>
<svg xmlns="http://www.w3.org/2000/svg" viewBox="0 0 24 24" enable-background="new 0 0 24 24">
    <path d="M 10 2 L 10 11 L 12 13 L 14 11 L 14 2 L 10 2 z M 6 4 L 6 11 L 7.5 13 L 9 11 L 9 4 L 6 4 z M 15 4 L 15 11 L 16.5 13 L 18 11 L 18 4 L 15 4 z M 2 6 L 2 11 L 3.5 13 L 5 11 L 5 6 L 2 6 z M 19 6 L 19 11 L 20.5 13 L 22 11 L 22 6 L 19 6 z M 2.8125 9 L 4.3125 9 L 4.3125 10 L 2.8125 10 L 2.8125 9 z M 6.8125 9 L 8.3125 9 L 8.3125 10 L 6.8125 10 L 6.8125 9 z M 11 9 L 13 9 L 13 10 L 11 10 L 11 9 z M 15.6875 9 L 17.1875 9 L 17.1875 10 L 15.6875 10 L 15.6875 9 z M 19.6875 9 L 21.1875 9 L 21.1875 10 L 19.6875 10 L 19.6875 9 z M 2 14 L 2 15 L 2 20 C 2 20.522222 2.1854695 21.060469 2.5625 21.4375 C 2.9395305 21.814531 3.4777778 22 4 22 L 20 22 C 20.522222 22 21.060469 21.814531 21.4375 21.4375 C 21.814531 21.060469 22 20.522222 22 20 L 22 15 L 22 14 L 21 14 L 3 14 L 2 14 z M 4 16 L 6 16 L 6 19 L 8 19 L 8 16 L 9 16 L 9 19 L 11 19 L 11 16 L 14 16 L 14 19 L 16 19 L 16 16 L 17 16 L 17 19 L 19 19 L 19 16 L 20 16 L 20 20 L 4 20 L 4 16 z"/>
</svg>
