<?xml version="1.0"?>
<svg xmlns="http://www.w3.org/2000/svg" viewBox="0 0 32 32">
    <path style="text-indent:0;text-align:start;line-height:normal;text-transform:none;block-progression:tb;-inkscape-font-specification:Sans" d="M 2.53125 4 L 2 5.9375 L 5 6.78125 L 5 10 L 3 10 L 2 10 L 2 11 L 2 15 L 2 16 L 3 16 L 5 16 L 5 28 L 7 28 L 7 16 L 9 16 L 9.09375 16 C 8.4081696 17.178937 8 18.542626 8 20 C 8 21.943959 8.7149563 23.736206 9.875 25.125 L 8.96875 28.03125 L 11.0625 28.03125 L 11.5 26.59375 C 12.784146 27.472612 14.332165 28 16 28 C 17.652412 28 19.191595 27.489052 20.46875 26.625 L 20.90625 28.03125 L 23 28.03125 L 22.09375 25.15625 C 23.271126 23.762587 24 21.960103 24 20 C 24 18.542626 23.59183 17.178937 22.90625 16 L 23 16 L 25 16 L 25 28 L 27 28 L 27 16 L 29 16 L 30 16 L 30 15 L 30 11 L 30 10 L 29 10 L 23 10 L 22 10 L 22 11 L 22 14.71875 C 20.531992 13.048883 18.38935 12 16 12 C 13.61065 12 11.468008 13.048883 10 14.71875 L 10 11 L 10 10 L 9 10 L 7 10 L 7 7.3125 L 9.46875 8 L 10 6.09375 L 2.53125 4 z M 25 4 L 25 6 L 27 6 L 27 4 L 25 4 z M 22 7 L 22 9 L 30 9 L 30 7 L 22 7 z M 4 12 L 8 12 L 8 14 L 4 14 L 4 12 z M 24 12 L 28 12 L 28 14 L 24 14 L 24 12 z M 16 14 C 19.325553 14 22 16.674447 22 20 C 22 23.325553 19.325553 26 16 26 C 12.674447 26 10 23.325553 10 20 C 10 16.674447 12.674447 14 16 14 z M 19 21 C 18.447715 21 18 21.447715 18 22 C 18 22.552285 18.447715 23 19 23 C 19.552285 23 20 22.552285 20 22 C 20 21.447715 19.552285 21 19 21 z"/>
</svg>
