<?xml version="1.0"?>
<svg xmlns="http://www.w3.org/2000/svg" viewBox="0 0 32 32">
    <path style="text-indent:0;text-align:start;line-height:normal;text-transform:none;block-progression:tb;-inkscape-font-specification:Bitstream Vera Sans" d="M 10 5 C 7.2504839 5 5 7.2504839 5 10 L 5 26 L 5 27 L 6 27 L 26 27 L 27 27 L 27 26 L 27 16 C 27 13.250484 24.749516 11 22 11 L 20.46875 11 L 16.96875 6.8125 C 16.019337 5.6732042 14.607984 5 13.125 5 L 10 5 z M 10 7 L 13.125 7 C 14.016016 7 14.866913 7.4090458 15.4375 8.09375 L 19.21875 12.625 L 19.53125 13 L 20 13 L 22 13 C 23.668484 13 25 14.331516 25 16 L 25 19 L 7 19 L 7 10 C 7 8.3315161 8.3315161 7 10 7 z M 7 21 L 8 21 L 8 24 L 10 24 L 10 21 L 11 21 L 11 24 L 13 24 L 13 21 L 16 21 L 16 24 L 18 24 L 18 21 L 19 21 L 19 24 L 21 24 L 21 21 L 22 21 L 22 24 L 24 24 L 24 21 L 25 21 L 25 25 L 7 25 L 7 21 z"/>
</svg>
