<?xml version="1.0"?>
<svg xmlns="http://www.w3.org/2000/svg" viewBox="0 0 24 24" enable-background="new 0 0 24 24">
    <path d="M 20.4375 0.96875 C 20.2875 0.9640625 20.15 1.0375 20 1.1875 L 9.1875 11.90625 L 12.09375 14.8125 L 22.8125 4 C 23.0125 3.8 23.1 3.70625 23 3.40625 C 22.9 3.10625 22.69375 2.50625 22.09375 1.90625 C 21.49375 1.30625 20.89375 1.1 20.59375 1 C 20.54375 0.975 20.4875 0.9703125 20.4375 0.96875 z M 19 4 C 19.6 4 20 4.4 20 5 C 20 5.6 19.5 6 19 6 C 18.5 6 18 5.6 18 5 C 18 4.4 18.4 4 19 4 z M 16 7 C 16.6 7 17 7.4 17 8 C 17 8.6 16.5 9 16 9 C 15.5 9 15 8.6 15 8 C 15 7.4 15.4 7 16 7 z M 13 10 C 13.6 10 14 10.4 14 11 C 14 11.6 13.5 12 13 12 C 12.5 12 12 11.6 12 11 C 12 10.4 12.4 10 13 10 z M 8.09375 13.09375 L 1.1875 20 C 0.9875 20.2 0.9 20.29375 1 20.59375 C 1.1 20.89375 1.30625 21.49375 1.90625 22.09375 C 2.50625 22.69375 3.10625 22.9 3.40625 23 C 3.60625 23.1 3.8 23.0125 4 22.8125 L 10.90625 15.90625 L 8.09375 13.09375 z M 5.90625 16.6875 L 3.90625 19.40625 L 4.59375 20.09375 L 7.3125 18.09375 L 4.1875 21.1875 L 2.8125 19.8125 L 5.90625 16.6875 z"/>
</svg>
