<?xml version="1.0"?>
<svg xmlns="http://www.w3.org/2000/svg" version="1" viewBox="0 0 24 24" enable-background="new 0 0 24 24">
    <path d="M 17.59375 2 L 16.59375 5.3125 C 16.49375 5.6125 16.3 5.89375 16 6.09375 L 15.59375 6.5 L 17.5 8.40625 L 17.90625 8 C 18.10625 7.8 18.3875 7.60625 18.6875 7.40625 L 22 6.40625 L 17.59375 2 z M 14.6875 7.40625 L 6.09375 16 L 8 17.90625 L 9.8125 16.09375 C 9.5125 15.99375 9.2 15.7875 9 15.6875 C 8.6 15.2875 8.6 14.7125 9 14.3125 C 9.4 13.9125 10.00625 13.9125 10.40625 14.3125 C 10.591595 14.497845 10.68808 14.75373 10.78125 15.03125 L 9.8125 16 C 10.002635 16.190135 10.414592 16.435022 10.78125 16.53125 L 10.15625 17.15625 A 0.50005 0.50005 0 1 0 10.84375 17.84375 L 16.84375 11.84375 A 0.50005 0.50005 0 0 0 16.40625 11 A 0.50005 0.50005 0 0 0 16.15625 11.15625 L 15.5 11.8125 C 15.388404 11.465508 15.176179 11.082429 15 10.90625 L 14 11.90625 C 14.176179 12.082429 14.559258 12.294654 14.90625 12.40625 L 13.40625 13.90625 C 13.294654 13.559258 13.082429 13.176179 12.90625 13 L 11.90625 14 C 12.082429 14.176179 12.465508 14.388404 12.8125 14.5 L 11.34375 15.96875 C 11.250943 15.630278 11.027326 15.265748 10.84375 15.0625 L 11.90625 14 C 11.60625 13.9 11.29375 13.79375 11.09375 13.59375 C 10.69375 13.19375 10.69375 12.5875 11.09375 12.1875 C 11.49375 11.7875 12.1 11.7875 12.5 12.1875 C 12.7 12.3875 12.80625 12.7 12.90625 13 L 14 11.90625 C 13.7 11.80625 13.3875 11.7 13.1875 11.5 C 12.7875 11.1 12.7875 10.49375 13.1875 10.09375 C 13.5875 9.69375 14.19375 9.69375 14.59375 10.09375 C 14.79375 10.29375 14.9 10.60625 15 10.90625 L 16.59375 9.3125 L 14.6875 7.40625 z M 5.3125 16.90625 L 2.09375 20.8125 C 1.79375 21.1125 3.0125 22.2 3.3125 22 L 7.1875 18.8125 L 5.3125 16.90625 z"/>
</svg>
