<?xml version="1.0"?>
<svg xmlns="http://www.w3.org/2000/svg" version="1" viewBox="0 0 24 24" enable-background="new 0 0 24 24">
    <path d="M 21.1875 2.09375 C 20.0875 3.19375 19.30625 2.50625 18.90625 2.90625 C 18.516838 3.2956618 18.506204 3.9705356 18.875 4.375 L 18.25 4.9375 L 17.25 3.9375 L 16.53125 4.65625 L 17.46875 5.59375 L 16.75 6.25 L 15.84375 5.34375 L 15.15625 6.0625 L 16 6.90625 L 14.625 8.15625 C 14.099811 7.6102432 13.178557 7 12.09375 7 C 11.49375 7 10.9125 7.19375 10.3125 7.59375 C 9.9125 7.89375 9.2875 8.3125 8.6875 8.8125 C 9.4875 9.7125 8.99375 10.6 8.09375 11.5 C 7.49375 12.1 6.9125 12.5 6.3125 12.5 C 6.0125 12.5 5.6125 12.4 5.3125 12 C 5.1125 11.8 5 11.7 5 11.5 C 4.3 12 3.8125 12.5 3.3125 13 C 1.1125 15.2 1.8 17.8 4 20 C 5.2 21.3 6.6 22.09375 8 22.09375 C 9 22.09375 10.00625 21.7125 10.90625 20.8125 C 11.40625 20.3125 11.8125 19.7875 12.3125 19.1875 C 12.1125 19.0875 12.0125 19.00625 11.8125 18.90625 C 10.9125 18.00625 11.40625 16.99375 12.40625 16.09375 C 13.00625 15.49375 13.5875 15.09375 14.1875 15.09375 C 14.4875 15.09375 14.79375 15.2 15.09375 15.5 C 15.59375 14.8 15.9875 14.20625 16.1875 13.90625 C 17.513676 12.064338 16.458613 10.407577 15.6875 9.53125 L 17.0625 7.96875 L 17.9375 8.84375 L 18.65625 8.15625 L 17.75 7.25 L 18.40625 6.53125 L 19.34375 7.46875 L 20.0625 6.75 L 19.0625 5.75 L 19.65625 5.09375 L 19.6875 5.09375 C 20.0875 5.49375 20.7875 5.49375 21.1875 5.09375 C 21.5875 4.69375 20.9 3.8125 22 2.8125 L 21.1875 2.09375 z M 12.09375 8.5 C 12.58575 8.5 13.095181 8.8556076 13.5 9.1875 L 10 12.3125 L 11.6875 14 L 14.84375 10.46875 C 15.317705 11.038524 15.797238 11.931768 15.1875 12.8125 C 15.0875 13.0125 14.9125 13.20625 14.8125 13.40625 L 14.40625 13.40625 C 13.20625 13.40625 12.19375 14.20625 11.59375 14.90625 C 9.69375 16.80625 9.9 18.1875 10.5 19.1875 C 10.4 19.3875 10.19375 19.49375 10.09375 19.59375 C 9.49375 20.19375 8.8875 20.5 8.1875 20.5 C 7.4076327 20.5 6.5837253 20.0209 5.71875 19.25 L 8.59375 16.6875 L 7.1875 15.3125 L 4.65625 18.1875 C 4.0496702 17.431002 3.6875 16.684764 3.6875 16 C 3.6875 15.3 3.99375 14.69375 4.59375 14.09375 L 5 13.6875 C 5.5 13.9875 6.00625 14.09375 6.40625 14.09375 C 7.60625 14.09375 8.6125 13.29375 9.3125 12.59375 C 10.6125 11.29375 10.8875 10.2125 10.6875 9.3125 C 10.7875 9.1125 10.9875 9.0125 11.1875 8.8125 C 11.4875 8.6125 11.79375 8.5 12.09375 8.5 z"/>
</svg>
