<?xml version="1.0"?>
<svg xmlns="http://www.w3.org/2000/svg" viewBox="0 0 32 32">
    <path style="text-indent:0;text-align:start;line-height:normal;text-transform:none;block-progression:tb;-inkscape-font-specification:Bitstream Vera Sans" d="M 4 8 L 4 9 L 4 25 L 4 26 L 5 26 L 27 26 L 28 26 L 28 25 L 28 9 L 28 8 L 27 8 L 5 8 L 4 8 z M 6 10 L 26 10 L 26 18 L 6 18 L 6 10 z M 8 13 L 8 15 L 15 15 L 15 13 L 8 13 z M 18.5 13 C 17.671573 13 17 13.671573 17 14.5 C 17 15.328427 17.671573 16 18.5 16 C 19.328427 16 20 15.328427 20 14.5 C 20 13.671573 19.328427 13 18.5 13 z M 22.5 13 C 21.671573 13 21 13.671573 21 14.5 C 21 15.328427 21.671573 16 22.5 16 C 23.328427 16 24 15.328427 24 14.5 C 24 13.671573 23.328427 13 22.5 13 z M 6 20 L 8 20 L 8 23 L 10 23 L 10 20 L 11 20 L 11 23 L 13 23 L 13 20 L 16 20 L 16 23 L 18 23 L 18 20 L 19 20 L 19 23 L 21 23 L 21 20 L 22 20 L 22 23 L 24 23 L 24 20 L 26 20 L 26 24 L 6 24 L 6 20 z"/>
</svg>
